<svg width="800" height="600" xmlns="http://www.w3.org/2000/svg">
 <g>
  <title>Layer 1</title>
  <line stroke-linecap="undefined" stroke-linejoin="undefined" id="svg_1" y2="166" x2="293.6" y1="73" x1="361.6" stroke="#000" fill="none"/>
  <line stroke-linecap="undefined" stroke-linejoin="undefined" id="svg_2" y2="159" x2="422.6" y1="73" x1="360.6" stroke="#000" fill="none"/>
  <line stroke-linecap="undefined" stroke-linejoin="undefined" id="svg_5" y2="164.49674" x2="336.49483" y1="164.49674" x1="293.99513" stroke="#000" fill="none"/>
  <line stroke-linecap="undefined" stroke-linejoin="undefined" id="svg_6" y2="158.49678" x2="375.49456" y1="158.49678" x1="421.99423" stroke="#000" fill="none"/>
  <line stroke-linecap="undefined" stroke-linejoin="undefined" id="svg_7" y2="255.4961" x2="262.49535" y1="163.99674" x1="335.49484" stroke="#000" fill="none"/>
  <line stroke-linecap="undefined" stroke-linejoin="undefined" id="svg_8" y2="257.99608" x2="451.49402" y1="158.49678" x1="375.99455" stroke="#000" fill="none"/>
  <line stroke-linecap="undefined" stroke-linejoin="undefined" id="svg_9" y2="253.79611" x2="339.99481" y1="254.29611" x1="262.99535" stroke="#000" fill="none"/>
  <line stroke-linecap="undefined" stroke-linejoin="undefined" id="svg_11" y2="254.79611" x2="381.99451" y1="256.79609" x1="450.99403" stroke="#000" fill="none"/>
  <line stroke-linecap="undefined" stroke-linejoin="undefined" id="svg_12" y2="311.79571" x2="337.99482" y1="253.29612" x1="338.99481" stroke="#000" fill="none"/>
  <line stroke-linecap="undefined" stroke-linejoin="undefined" id="svg_15" y2="310.79571" x2="382.9945" y1="254.29611" x1="382.9945" stroke="#000" fill="none"/>
  <line stroke-linecap="undefined" stroke-linejoin="undefined" id="svg_16" y2="310.79571" x2="381.99451" y1="310.79571" x1="338.49482" stroke="#000" fill="none"/>
  <path transform="rotate(139.659 362.776 62.0524)" stroke="#000" id="svg_19" d="m402.35931,54.16853l-30.24555,0l-9.33641,-25.44944l-1.31095,3.55653l-8.03647,21.89779l-30.23729,-0.00488l24.46193,15.74338l-9.35293,25.46652l24.46744,-15.74338l24.47295,15.7507l-9.35568,-25.47384l24.47295,-15.74338zm-36.34864,21.5197l-3.23607,-2.08074l-3.23607,2.08318l-10.74651,6.91304l4.10361,-11.18185l1.23935,-3.37114l-3.24158,-2.08562l-10.741,-6.91304l17.28199,0l1.23935,-3.3687l4.10086,-11.18185l4.10086,11.17453l1.23659,3.3687l17.29851,0l-10.75752,6.91792l-3.24433,2.08318l1.23659,3.37602l4.11187,11.18185l-10.74651,-6.91548z" fill="pink"/>
  <path id="svg_20" d="m411.08986,276.46258l23.7944,0.00819l-0.77213,1.02922l-22.24101,-0.02458l-0.78125,-1.01284l0,0zm0.16352,-13.69099l23.47645,-0.02458l0.68131,1.05582l-24.84817,0.00819l0.69041,-1.03944zm-2.31684,6.86037l28.09194,-0.02458l-0.03631,1.05583l-28.03746,-0.01639l-0.01817,-1.01486zm28.1152,0.09793c0,6.98981 -6.30601,12.6761 -14.05842,12.6761c-7.74906,0 -14.0539,-5.68731 -14.0539,-12.6761c0,-6.98882 6.30598,-12.6751 14.0539,-12.6751c7.75241,-0.00103 14.05842,5.68628 14.05842,12.6751zm-14.05732,-13.69099c-8.36763,0 -15.17688,6.1412 -15.17688,13.68996c0,7.54979 6.80924,13.69099 15.17688,13.69099c8.37219,0 15.1803,-6.1412 15.1803,-13.69099c0,-7.54876 -6.8081,-13.68996 -15.1803,-13.68996zm4.25906,13.69099c0,7.4692 -2.24375,12.6761 -4.25906,12.6761c-2.01303,0 -4.25674,-5.2069 -4.25674,-12.6761c0,-7.47125 2.24261,-12.6751 4.25674,-12.6751c2.01417,-0.00103 4.25906,5.20385 4.25906,12.6751zm-4.25906,-13.69099c-3.49563,0 -5.382,7.05406 -5.382,13.68996c0,6.63793 1.88637,13.69099 5.382,13.69099c3.49567,0 5.38545,-7.05409 5.38545,-13.69099c-0.00114,-6.6359 -1.88979,-13.68996 -5.38545,-13.68996zm9.97469,13.69099c0,6.98981 -4.47618,12.6761 -9.97469,12.6761c-5.49737,0 -9.97127,-5.68731 -9.97127,-12.6761c0,-6.98882 4.4739,-12.6751 9.97127,-12.6751c5.49852,-0.00103 9.97469,5.68628 9.97469,12.6751zm-9.97469,-13.69099c-6.11712,0 -11.09653,6.1412 -11.09653,13.68996c0,7.54979 4.97941,13.69099 11.09653,13.69099c6.1194,0 11.0977,-6.1412 11.0977,-13.69099c0,-7.54876 -4.9783,-13.68996 -11.0977,-13.68996z" stroke="#blue" fill="pink"/>
  <path stroke="#blue" id="svg_21" d="m294.25946,179.39413l19.59537,0.00623l-0.63587,0.7831l-18.31612,-0.0187l-0.64338,-0.77064l0,0zm0.13466,-10.41706l19.33353,-0.0187l0.56108,0.80335l-20.46318,0.00623l0.56857,-0.79088zm-1.90798,5.21985l23.13453,-0.0187l-0.0299,0.80335l-23.08966,-0.01247l-0.01496,-0.77218zm23.15368,0.07451c0,5.31834 -5.19318,9.64486 -11.57752,9.64486c-6.38158,0 -11.57379,-4.3273 -11.57379,-9.64486c0,-5.31758 5.19315,-9.6441 11.57379,-9.6441c6.38433,-0.00078 11.57752,4.32652 11.57752,9.6441zm-11.57661,-10.41706c-6.89099,0 -12.4986,4.67266 -12.4986,10.41628c0,5.7444 5.60761,10.41706 12.4986,10.41706c6.89474,0 12.50141,-4.67266 12.50141,-10.41706c0,-5.74362 -5.60667,-10.41628 -12.50141,-10.41628zm3.50746,10.41706c0,5.68309 -1.84779,9.64486 -3.50746,9.64486c-1.65779,0 -3.50555,-3.96177 -3.50555,-9.64486c0,-5.68465 1.84685,-9.6441 3.50555,-9.6441c1.65873,-0.00078 3.50746,3.95945 3.50746,9.6441zm-3.50746,-10.41706c-2.87875,0 -4.43223,5.36722 -4.43223,10.41628c0,5.0506 1.55348,10.41706 4.43223,10.41706c2.87878,0 4.43508,-5.36724 4.43508,-10.41706c-0.00094,-5.04906 -1.55629,-10.41628 -4.43508,-10.41628zm8.21445,10.41706c0,5.31834 -3.68626,9.64486 -8.21445,9.64486c-4.52725,0 -8.21163,-4.3273 -8.21163,-9.64486c0,-5.31758 3.68438,-9.6441 8.21163,-9.6441c4.52819,-0.00078 8.21445,4.32652 8.21445,9.6441zm-8.21445,-10.41706c-5.03763,0 -9.13831,4.67266 -9.13831,10.41628c0,5.7444 4.10069,10.41706 9.13831,10.41706c5.0395,0 9.13928,-4.67266 9.13928,-10.41706c0,-5.74362 -4.09978,-10.41628 -9.13928,-10.41628z" fill="green"/>
  <path stroke="#blue" id="svg_22" d="m279.98009,274.91613l24.72748,0.00819l-0.80241,1.02922l-23.11318,-0.02458l-0.81189,-1.01284l0,0zm0.16993,-13.69098l24.39706,-0.02458l0.70803,1.05582l-25.82257,0.00819l0.71748,-1.03944zm-2.40769,6.86037l29.19355,-0.02458l-0.03774,1.05583l-29.13693,-0.01639l-0.01888,-1.01486zm29.21771,0.09793c0,6.98981 -6.5533,12.67609 -14.60971,12.67609c-8.05294,0 -14.60501,-5.68731 -14.60501,-12.67609c0,-6.98882 6.55326,-12.6751 14.60501,-12.6751c8.05642,-0.00103 14.60971,5.68628 14.60971,12.6751zm-14.60857,-13.69099c-8.69577,0 -15.77203,6.1412 -15.77203,13.68996c0,7.54978 7.07626,13.69098 15.77203,13.69098c8.7005,0 15.77558,-6.1412 15.77558,-13.69098c0,-7.54875 -7.07508,-13.68996 -15.77558,-13.68996zm4.42607,13.69099c0,7.46919 -2.33174,12.67609 -4.42607,12.67609c-2.09197,0 -4.42367,-5.2069 -4.42367,-12.67609c0,-7.47125 2.33055,-12.6751 4.42367,-12.6751c2.09315,-0.00103 4.42607,5.20385 4.42607,12.6751zm-4.42607,-13.69099c-3.63271,0 -5.59305,7.05406 -5.59305,13.68996c0,6.63792 1.96034,13.69098 5.59305,13.69098c3.63275,0 5.59664,-7.05409 5.59664,-13.69098c-0.00118,-6.6359 -1.96389,-13.68996 -5.59664,-13.68996zm10.36584,13.69099c0,6.98981 -4.65171,12.67609 -10.36584,12.67609c-5.71295,0 -10.36229,-5.68731 -10.36229,-12.67609c0,-6.98882 4.64934,-12.6751 10.36229,-12.6751c5.71414,-0.00103 10.36584,5.68628 10.36584,12.6751zm-10.36584,-13.69099c-6.357,0 -11.53167,6.1412 -11.53167,13.68996c0,7.54978 5.17467,13.69098 11.53167,13.69098c6.35937,0 11.53289,-6.1412 11.53289,-13.69098c0,-7.54875 -5.17352,-13.68996 -11.53289,-13.68996z" fill="lightblue"/>
  <path stroke="#blue" id="svg_25" d="m396.35108,175.72721l21.92813,0.00712l-0.71157,0.89498l-20.49658,-0.02137l-0.71998,-0.88073l0,0zm0.15069,-11.90521l21.63512,-0.02137l0.62788,0.91811l-22.89925,0.00712l0.63626,-0.90386zm-2.13512,5.96554l25.88861,-0.02137l-0.03346,0.91811l-25.8384,-0.01425l-0.01674,-0.88249zm25.91004,0.08515c0,6.0781 -5.81141,11.0227 -12.95578,11.0227c-7.14128,0 -12.95161,-4.94549 -12.95161,-11.0227c0,-6.07724 5.81138,-11.02183 12.95161,-11.02183c7.14437,-0.00089 12.95578,4.9446 12.95578,11.02183zm-12.95476,-11.90521c-7.71134,0 -13.98651,5.34018 -13.98651,11.90432c0,6.56503 6.27517,11.90521 13.98651,11.90521c7.71553,0 13.98966,-5.34018 13.98966,-11.90521c0,-6.56414 -6.27412,-11.90432 -13.98966,-11.90432zm3.92501,11.90521c0,6.49496 -2.06777,11.0227 -3.92501,11.0227c-1.85514,0 -3.92287,-4.52774 -3.92287,-11.0227c0,-6.49674 2.06671,-11.02183 3.92287,-11.02183c1.85619,-0.00089 3.92501,4.52509 3.92501,11.02183zm-3.92501,-11.90521c-3.22146,0 -4.95987,6.13397 -4.95987,11.90432c0,5.77211 1.73842,11.90521 4.95987,11.90521c3.22149,0 4.96306,-6.13399 4.96306,-11.90521c-0.00105,-5.77035 -1.74157,-11.90432 -4.96306,-11.90432zm9.19235,11.90521c0,6.0781 -4.1251,11.0227 -9.19235,11.0227c-5.0662,0 -9.1892,-4.94549 -9.1892,-11.0227c0,-6.07724 4.123,-11.02183 9.1892,-11.02183c5.06725,-0.00089 9.19235,4.9446 9.19235,11.02183zm-9.19235,-11.90521c-5.63734,0 -10.22619,5.34018 -10.22619,11.90432c0,6.56503 4.58886,11.90521 10.22619,11.90521c5.63944,0 10.22728,-5.34018 10.22728,-11.90521c0,-6.56414 -4.58784,-11.90432 -10.22728,-11.90432z" fill="red"/>
 </g>
</svg>